<svg xmlns="http://www.w3.org/2000/svg" viewBox="0 0 1200 630" width="1200" height="630" font-family="'Segoe UI', Arial, sans-serif">
  <defs>
    <linearGradient id="bg" x1="0" y1="0" x2="1" y2="1">
      <stop offset="0" stop-color="#0a0c14"/>
      <stop offset="1" stop-color="#0e1118"/>
    </linearGradient>
    <linearGradient id="grad" x1="0" y1="0" x2="1" y2="0">
      <stop offset="0" stop-color="#38e1c8"/>
      <stop offset="1" stop-color="#e9a23b"/>
    </linearGradient>
    <radialGradient id="glowA" cx="18%" cy="20%" r="40%">
      <stop offset="0" stop-color="#38e1c8" stop-opacity="0.28"/>
      <stop offset="1" stop-color="#38e1c8" stop-opacity="0"/>
    </radialGradient>
    <radialGradient id="glowB" cx="85%" cy="85%" r="45%">
      <stop offset="0" stop-color="#e9a23b" stop-opacity="0.26"/>
      <stop offset="1" stop-color="#e9a23b" stop-opacity="0"/>
    </radialGradient>
  </defs>

  <rect width="1200" height="630" fill="url(#bg)"/>
  <rect width="1200" height="630" fill="url(#glowA)"/>
  <rect width="1200" height="630" fill="url(#glowB)"/>

  <!-- faint grid -->
  <g stroke="#ffffff" stroke-opacity="0.05">
    <path d="M0 90H1200M0 180H1200M0 270H1200M0 360H1200M0 450H1200M0 540H1200"/>
    <path d="M100 0V630M250 0V630M400 0V630M550 0V630M700 0V630M850 0V630M1000 0V630M1150 0V630"/>
  </g>

  <!-- monogram chip -->
  <rect x="80" y="70" width="92" height="92" rx="22" fill="#0b0e16" stroke="#ffffff" stroke-opacity="0.12"/>
  <text x="126" y="133" font-size="46" font-weight="800" text-anchor="middle" fill="url(#grad)">VP</text>

  <text x="80" y="300" font-size="34" letter-spacing="6" fill="#9aa3b8">DUBAI · UAE</text>
  <text x="76" y="392" font-size="86" font-weight="800" fill="#f3f5fa">Vardges Petrosyan</text>
  <text x="80" y="468" font-size="40" font-weight="600" fill="url(#grad)">Full-Stack Developer × Hospitality Leader</text>
  <text x="80" y="528" font-size="29" fill="#9aa3b8">Web development · Cybersecurity · Bar / Beverage / F&amp;B management</text>

  <rect x="80" y="560" width="1040" height="2" fill="#ffffff" fill-opacity="0.08"/>
  <text x="80" y="598" font-size="24" letter-spacing="2" fill="#8b93a7">vardges.me</text>
</svg>
