<!DOCTYPE svg PUBLIC "-//W3C//DTD SVG 1.1//EN" "http://www.w3.org/Graphics/SVG/1.1/DTD/svg11.dtd">
<!-- Uploaded to: SVG Repo, www.svgrepo.com, Transformed by: SVG Repo Mixer Tools -->
<svg fill="#000000" height="64px" width="64px" version="1.1" id="Layer_1" xmlns="http://www.w3.org/2000/svg" xmlns:xlink="http://www.w3.org/1999/xlink" viewBox="0 0 508.056 508.056" xml:space="preserve">
<g id="SVGRepo_bgCarrier" stroke-width="0"/>
<g id="SVGRepo_tracerCarrier" stroke-linecap="round" stroke-linejoin="round"/>
<g id="SVGRepo_iconCarrier"> <g> <g> <path d="M490.622,297.844c-0.008-0.044-0.004-0.084-0.016-0.132l-62.816-271.4c-0.568-2.452-1.88-4.524-3.608-6.104 c-1.816-2.504-4.74-4.152-8.072-4.152H281.23C276.742,6.584,267.114,0,255.954,0c-11.308,0-21.048,6.752-25.46,16.416 c-0.816-0.208-1.656-0.36-2.54-0.36H91.95c-3.32,0-6.244,1.636-8.06,4.132c-1.74,1.584-3.06,3.66-3.632,6.124L17.514,297.424 c-0.416,0.632-0.72,1.344-0.72,2.164c0,41.604,33.852,75.464,75.468,75.464c41.604,0,75.468-33.86,75.468-75.464 c0-0.812-0.304-1.532-0.72-2.156L106.518,36.056h121.436c0.4,0,0.776-0.072,1.168-0.116c2.484,8.384,8.796,15.108,16.908,18.2 v397.376l-48,28.176v28.364h112v-28.368l-48-28.176V55.304c9.888-2.2,17.816-9.632,20.716-19.248h118.796l-60.564,261.656 c-0.012,0.048-0.008,0.096-0.02,0.144c-0.364,0.568-0.628,1.204-0.628,1.96c0,41.608,33.852,75.236,75.464,75.236 c41.608,0,75.468-33.624,75.468-75.236C491.266,299.056,490.994,298.416,490.622,297.844z M141.958,296.056H42.566l49.7-214.72 L141.958,296.056z M365.986,296.056L415.794,80.86l49.808,215.196H365.986z"/> </g> </g> </g>
</svg>